# xmcd
#
# Track frame offsets:
# 150
# 9846
# 35803
# 49670
# 72432
# 94617
# 106951
# 117370
# 150443
# 164862
# 183619
# 213841
# 233100
# 245103
#
# Disc length: 3494 seconds
#
#
# Revision: 3
# Processed by: cddbd v1.5.2PL0 Copyright (c) Steve Scherf et al.
# Submitted via: FreeRIP 2.951 
#
DISCID=be0da40e
DTITLE=Axe Men - Axe Men
DYEAR=2000
DGENRE=Blues
TTITLE0=Eric Clapton - Tribute To Elmore
TTITLE1=Jimmy Page - Don't Send Me No Flowers
TTITLE2=Jeff Beck - Jeff's Blues
TTITLE3=B.B. King - The Thrill Is Gone
TTITLE4=Carlos Santana - Soul Sacrifice
TTITLE5=Steve Marriott - Itchycoo Park
TTITLE6=John Mayall - Putty In Your Hands
TTITLE7=Russ Pay - Kashmir
TTITLE8=Rene Berg - Fast Car
TTITLE9=James Stevenson feat. Beki Bondage - In A Broken Dream
TTITLE10=Uli Jon Roth - Burning Wheels Turning
TTITLE11=Mick Ronson - Belgique Blue
TTITLE12=Peter Green - Somebody's Gonna Get Their Head Kicked In Tonight
TTITLE13=Jimi Hendrix - Wild Thing
EXTD=
EXTT0=
EXTT1=
EXTT2=
EXTT3=
EXTT4=
EXTT5=
EXTT6=
EXTT7=
EXTT8=
EXTT9=
EXTT10=
EXTT11=
EXTT12=
EXTT13=
PLAYORDER=
